<svg xmlns="http://www.w3.org/2000/svg" viewBox="0 0 1200 900" role="img" aria-labelledby="title desc">
  <title id="title">Moonlit ship showcase art</title>
  <desc id="desc">A stylized night seascape with a glowing mechanical ship under the moon.</desc>
  <defs>
    <linearGradient id="nightSky" x1="0" x2="0" y1="0" y2="1">
      <stop offset="0%" stop-color="#0a1733"/>
      <stop offset="55%" stop-color="#1b2f57"/>
      <stop offset="100%" stop-color="#344668"/>
    </linearGradient>
    <linearGradient id="sea" x1="0" x2="0" y1="0" y2="1">
      <stop offset="0%" stop-color="#203f67"/>
      <stop offset="100%" stop-color="#091828"/>
    </linearGradient>
  </defs>
  <rect width="1200" height="900" fill="url(#nightSky)"/>
  <circle cx="915" cy="182" r="96" fill="#eef5ff"/>
  <circle cx="915" cy="182" r="132" fill="#eef5ff" opacity="0.08"/>
  <path d="M0 455c210-26 320-20 460 12s260 32 410-6 225-40 330-8v453H0z" fill="url(#sea)"/>
  <path d="M0 548c165 12 302 20 460-10s256-34 390-8 242 22 350-5v120H0z" fill="#2d5a89" opacity="0.55"/>
  <path d="M0 642c180 20 335 18 504-11s258-38 370-15 205 30 326 18v272H0z" fill="#16324f"/>
  <g transform="translate(305 345)">
    <path d="M70 210h460l-85 102H0z" fill="#18222f"/>
    <rect x="152" y="104" width="228" height="106" rx="14" fill="#25384c"/>
    <rect x="208" y="58" width="120" height="52" rx="10" fill="#314b65"/>
    <rect x="398" y="120" width="82" height="54" rx="10" fill="#1f3041"/>
    <rect x="138" y="172" width="254" height="36" rx="12" fill="#4d6d8d"/>
    <rect x="258" y="0" width="18" height="64" fill="#111c27"/>
    <path d="M276 8l92 35-92 18z" fill="#b8d0e8"/>
    <g fill="#ffd26f">
      <rect x="174" y="126" width="24" height="20" rx="4"/>
      <rect x="212" y="126" width="24" height="20" rx="4"/>
      <rect x="250" y="126" width="24" height="20" rx="4"/>
      <rect x="288" y="126" width="24" height="20" rx="4"/>
      <rect x="326" y="126" width="24" height="20" rx="4"/>
      <rect x="420" y="136" width="20" height="16" rx="4"/>
    </g>
    <ellipse cx="254" cy="290" rx="210" ry="22" fill="#99d3ff" opacity="0.16"/>
  </g>
  <path d="M0 380c132 36 235 40 375 10s272-36 440 6 225 44 385 8v94H0z" fill="#ffffff" opacity="0.12"/>
</svg>
